PathFileType	4	(X/Y/Z)	RBDS09\RBDS09runT35.trc
DataRate	CameraRate	NumFrames	NumMarkers	Units	OrigDataRate	OrigDataStartFrame	OrigNumFrames
150.000000	150.000000	6	33	mm	150.000000	1125	4500
Frame#	Time	L.ASIS			L.Heel.Bottom			L.Heel.Lateral			L.Heel.Top			L.Iliac.Crest			L.MT1			L.MT5			L.PSIS			L.Shank.Bottom.Lateral			L.Shank.Bottom.Medial			L.Shank.Top.Lateral			L.Shank.Top.Medial			L.Thigh.Bottom.Lateral			L.Thigh.Bottom.Medial			L.Thigh.Top.Lateral			L.Thigh.Top.Medial			R.ASIS			R.ASY			R.Heel.Bottom			R.Heel.Lateral			R.Heel.Top			R.Iliac.Crest			R.MT1			R.MT5			R.PSIS			R.Shank.Bottom.Lateral			R.Shank.Bottom.Medial			R.Shank.Top.Lateral			R.Shank.Top.Medial			R.Thigh.Bottom.Lateral			R.Thigh.Bottom.Medial			R.Thigh.Top.Lateral			R.Thigh.Top.Medial			
		X1	Y1	Z1	X2	Y2	Z2	X3	Y3	Z3	X4	Y4	Z4	X5	Y5	Z5	X6	Y6	Z6	X7	Y7	Z7	X8	Y8	Z8	X9	Y9	Z9	X10	Y10	Z10	X11	Y11	Z11	X12	Y12	Z12	X13	Y13	Z13	X14	Y14	Z14	X15	Y15	Z15	X16	Y16	Z16	X17	Y17	Z17	X18	Y18	Z18	X19	Y19	Z19	X20	Y20	Z20	X21	Y21	Z21	X22	Y22	Z22	X23	Y23	Z23	X24	Y24	Z24	X25	Y25	Z25	X26	Y26	Z26	X27	Y27	Z27	X28	Y28	Z28	X29	Y29	Z29	X30	Y30	Z30	X31	Y31	Z31	X32	Y32	Z32	X33	Y33	Z33	

1126	7.500000000000001	2310.181587501073	1002.495897681765	941.4112297935408	2380.746368597192	38.91098106481053	1033.890935123796	2400.229922424245	57.21325123272668	983.4279969915526	2373.923822484179	87.2736151142735	1024.163779359688	2234.33883057662	1067.676627626838	909.8619471906139	2584.650765394132	113.7066702788379	1023.643993757271	2535.750883838182	75.53946758611016	931.0360179220322	2162.199794668478	1027.036959674133	1031.974003732966	2381.231102982421	202.1241943357801	951.8668941591094	2354.740948361574	196.9681973046589	998.8967466355377	2351.858629045772	275.2961700615988	942.6019567074241	2324.636306818701	272.0220264891599	989.4763116485312	2284.900595866899	627.3175463434394	918.0608838742008	2243.391670363141	615.1312046977284	977.558620949761	2240.498313742291	728.4041629414478	910.2292130891378	2202.9431340664	717.623145578158	967.7564187452963	2334.691971694833	981.3982465981952	1171.122845685827	20107283.84338305	-27754638.65064649	-72322557.89553504	1684.898368150081	437.5283759011566	1109.790501059995	1702.438630583219	407.5163040285108	1157.97418122135	1732.905601460162	435.7377852245743	1117.376605924226	2291.86895468296	1063.858852749206	1209.181040189034	1743.162755540898	236.3419556528025	1087.881543304879	1703.892652419488	265.7410038693935	1188.216047861403	2173.193246724276	1025.13239510585	1108.357984588996	1818.019582948032	437.6237813404441	1171.844364439527	1812.858149473427	457.3653654115079	1124.738556462173	1889.285713223947	483.1958308673309	1180.721308421678	1880.160938875781	502.1369385089266	1132.293778561002	2168.466979623176	600.5529744322877	1196.092470840939	2109.265550002942	617.7003739591132	1158.881050880115	2184.811586343841	708.420300008751	1215.853883100104	2128.627536255173	723.9381658928928	1178.767122697099	
1127	7.506666666666667	2308.77053431697	999.2906927014953	940.6320606345619	2375.796295391808	36.16769241814986	1037.196731308445	2395.593034970948	54.10635600701655	986.7759764023253	2369.663335395871	84.45773155552411	1027.46570974875	2232.420527210303	1063.759513262139	909.6428214207999	2580.133943317446	108.2833191230633	1027.320614162768	2531.151386862996	70.85353709507908	934.6104572802137	2161.027849292524	1022.747914229156	1032.14756998599	2377.402714129633	197.8623323435454	954.717386383444	2350.88792537096	192.8948569280515	1001.742633418904	2348.197300663292	271.0634758818558	945.1767140592829	2320.979767556366	267.9931147847582	992.0712037459435	2281.716290842482	623.3725172044143	919.7642961121559	2240.541130992189	611.8284787458383	979.6540524649229	2237.949630391512	724.7136588942349	911.6576391587963	2200.718304323094	714.5554503068649	969.5241324127003	2334.188532862211	978.7912824301898	1170.827795027115	20162848.06592238	-27831901.91336864	-72523697.17644785	1692.04124459655	452.1607856859647	1106.389165047653	1707.820886187089	423.1562264716249	1155.75789035671	1739.923738605829	448.5020896513385	1114.530872601392	2289.153312274979	1060.44325236003	1210.035557404258	1741.242355061665	247.8536271389673	1092.268790160882	1702.806932047843	282.5746040622374	1190.939474084035	2172.307247804105	1020.62893848631	1108.462857513028	1824.450591828478	447.5690480710389	1170.409733788565	1820.690217191764	466.1126692271992	1122.720848238921	1897.743903419541	489.7918854555188	1178.634301800691	1890.049788742812	507.816123643132	1129.700675720967	2175.205790657012	593.8234384074478	1196.128163038557	2116.971651945558	609.2140064837796	1156.828478562123	2188.451308053391	702.2439418576703	1215.143813742814	2133.062107225289	716.1486882237253	1176.332661329417	
1128	7.513333333333334	2307.260178590478	995.6449188790871	939.8486755704287	2367.53171394154	33.78735447649676	1040.484330006615	2387.956458497573	51.36422989792629	990.2581732764897	2362.630094492933	82.04430291289367	1030.997957166536	2230.435592824206	1059.447668768235	909.4586821452504	2572.875683377639	101.2051118706812	1031.822298688527	2523.801859833442	65.52181785990653	938.7241158839912	2159.699891370233	1018.0142895407	1032.336033875752	2372.055714617574	193.4068008268391	957.7345011008426	2345.306198383693	188.9002265056647	1004.623843397042	2343.61626021857	266.8409424633506	947.6558364504984	2316.26187034792	264.2179622419472	994.4735636236582	2279.143747140638	619.2516003613077	921.2929462966013	2238.182892958464	608.1082559205887	981.4033436866328	2235.737541751655	720.7186606984695	912.9622389972981	2198.759315480267	710.9887917156806	971.0754191601752	2333.502036542269	975.5804277434893	1170.524292707466	20218514.52586642	-27909308.43005704	-72725209.0350343	1700.820500643394	465.6783023424111	1102.908620856513	1714.987936455287	437.8939580991384	1153.533353374345	1748.508579725417	460.2677472104316	1111.639953910894	2286.800711759847	1056.130110605443	1210.860485836566	1741.162840979467	258.78310107793	1096.862321376047	1703.889430784125	298.8551561699211	1193.792782434358	2171.261940427827	1015.601778354577	1108.574646986154	1832.365098520825	456.766376523614	1168.966589744353	1829.904567717278	473.9560412489835	1120.699848605365	1907.493717712491	495.5811929817291	1176.539993949881	1901.125078230704	512.5338119264263	1127.085113764935	2182.061835040237	586.7891771826835	1196.488722534221	2124.926313856307	600.3124574301778	1154.955567338879	2192.06746913117	695.71109542617	1214.538147070197	2137.620435737156	707.8916632902051	1173.883984835804	
1129	7.52	2305.63945553592	991.5909717289256	939.0593205062468	2356.155588451075	31.76153534138048	1043.664245179034	2377.47122351994	49.05747660200566	993.7875984702272	2352.943225242515	80.02461125507291	1034.713060384792	2228.383501168411	1054.698939635751	909.2841421052483	2562.986717331147	92.8415833235206	1036.973471024261	2513.810518621753	59.90085369553715	943.21807515885	2158.182615816381	1012.888011995724	1032.543458117317	2365.236463421772	188.8608241802455	960.8959917195195	2338.043071894338	185.0764598069699	1007.511063211993	2338.141965537272	262.7065447763644	950.0384324280653	2310.511759490726	260.7640932934527	996.6753048448508	2277.159598196085	614.972807455654	922.6217434865371	2236.31488555237	604.001521395463	982.8136729852614	2233.828121222708	716.436559023482	914.1187384996114	2197.051201715283	706.9544092956371	972.4085346318141	2332.622224639496	971.7804892399241	1170.181649806949	20274283.31714661	-27986858.33338988	-72927093.81604241	1711.051787917108	477.9691407825219	1099.597918127458	1723.803323019619	451.4951448094159	1151.469345050936	1758.486075654949	470.9256775528141	1108.89983849377	2284.850417373179	1050.962911710832	1211.598063482687	1742.910679663903	269.0505876989447	1101.402231034357	1707.117679959043	314.2388181410504	1196.636113768076	2170.019575474264	1010.116038674743	1108.698992757802	1841.697632673477	465.0860773604568	1167.61402460153	1840.394042066486	480.8474927175599	1118.812701075412	1918.475582858754	500.4635395001715	1174.565720537999	1913.282152896682	516.2588696678389	1124.604921476467	2189.139247745808	579.5135079713407	1197.199681807371	2133.133499403009	591.0688857326242	1153.459038182266	2195.766766684875	688.8625025699982	1214.124037887687	2142.305472398103	699.2145081144969	1171.668890263524	
1130	7.526666666666667	2303.894230738746	987.183521545963	938.2609151509541	2341.948592744256	30.09746067893348	1046.653484430743	2364.33993158751	47.25725421892626	997.2666351522182	2340.766519684063	78.40057158213749	1038.540569757721	2226.257973416628	1049.472544853261	909.0860681986924	2550.61578568831	83.68653624157082	1042.513152044532	2501.312197579644	54.3814246073453	947.8816443782048	2156.44325993575	1007.435642128075	1032.770875840899	2356.985189760742	184.3745784677783	964.1563731660754	2329.160362414087	181.5567666247086	1010.362057624803	2331.785039179035	258.7727600757327	952.3218985320532	2303.759036909822	257.7289263424654	998.6753200299507	2275.70783467603	610.5803944199051	923.735519349807	2234.909068151936	599.5775716798006	983.9071933515555	2232.169889524477	711.9164833700921	915.1070110382509	2195.562736796654	702.5232745681291	973.5251113284482	2331.537991175661	967.4288480427741	1169.772631183713	20330154.53369439	-28064551.75604532	-73129351.86422026	1722.539230902564	488.9629798850785	1096.708978753076	1734.101819414927	463.7566073999945	1149.7369612891	1769.674758068594	480.4036918296244	1106.509553051159	2283.297919216285	1045.008201500552	1212.202589112338	1746.457410053473	278.5681475377557	1105.644225722437	1712.412682204098	328.3839750422322	1199.345147198839	2168.537839868516	1004.249692006118	1108.836191082373	1852.361443081206	472.4237363690124	1166.449673392983	1852.046356253348	486.7653518446458	1117.187921505054	1930.607928513187	504.3779808229737	1172.831520020626	1926.412683220278	518.9959040340981	1122.403557752875	2196.548116025634	572.0856728318432	1198.261999403369	2141.599832157633	581.577582529019	1152.508104558153	2199.657980867756	681.7628470565976	1213.970983603132	2147.119519413386	690.1825992624166	1169.912852318975	
1131	7.533333333333334	2302.010905436117	982.5019055485686	937.4514602250642	2325.256267762712	28.80453853265346	1049.37890281446	2348.814126669205	46.01051673489054	1000.590869820239	2326.304944167272	77.17244656041002	1042.382292034268	2224.046861183944	1043.74338657002	908.8298444233826	2535.952665619741	74.30579783179923	1048.124290274867	2486.478210990097	49.33019176549134	952.475735172945	2154.456365739705	1001.74027935329	1033.018090659868	2347.339677420085	180.1222340859153	967.4406466534281	2318.73618321093	178.492101843171	1013.1153754126	2324.541215416299	255.1669050905161	954.4915120519679	2296.032636844942	255.2197722183813	1000.469354940644	2274.695745185967	606.1409865898065	924.6273783212869	2233.903160996894	594.9405439168268	984.7157533857079	2230.696050672796	707.2386525102547	915.910308085528	2194.244920752305	697.805006623271	974.4273679822574	2330.237889745191	962.5894910257016	1169.279014410168	20386128.26944123	-28142388.83070158	-73331983.52431591	1735.081767240476	498.6231217477233	1094.476137502551	1745.698219138019	474.5125864225516	1148.495754451106	1781.892046964436	488.6632356059407	1104.655954765787	2282.092508811795	1038.359422749001	1212.644286010855	1751.762967856291	287.2383827700519	1109.378652191183	1719.651107088574	340.9705117385685	1201.820818235107	2166.776625366419	998.0945847240681	1108.983371098732	1864.248976572355	478.7038671471022	1165.56263929696	1864.744382999839	491.712929749742	1115.936291167384	1943.787750639307	507.3075726097072	1171.442271471494	1940.404534215921	520.7868120329651	1120.601081737329	2204.393105025411	564.6277898357595	1199.650467663018	2150.337053756893	571.9617879810978	1152.22431805478	2203.84192184939	674.5076694584836	1214.124381212471	2152.067267284051	680.8871025471452	1168.79632539441	
